# Blender v3.4.1 OBJ File: 'sputnikV.blend'
# www.blender.org
mtllib light1.mtl
o Cube.001_Cube.002
v -5.168920 -7.135828 2.896310
v -4.175004 -5.835225 7.059078
v -7.514112 -3.376771 2.281788
v -6.520195 -2.076169 6.444555
v -3.588256 -6.256307 2.244111
v -2.594340 -4.955705 6.406878
v -5.933448 -2.497251 1.629588
v -4.939532 -1.196648 5.792356
vt 0.625000 0.000000
vt 0.375000 0.250000
vt 0.375000 0.000000
vt 0.625000 0.250000
vt 0.375000 0.500000
vt 0.625000 0.750000
vt 0.375000 0.750000
vt 0.375000 1.000000
vt 0.125000 0.500000
vt 0.125000 0.750000
vt 0.875000 0.500000
vt 0.625000 0.500000
vt 0.625000 1.000000
vt 0.875000 0.750000
vn -0.8220 -0.4574 0.3392
vn -0.5243 0.8404 -0.1374
vn 0.8220 0.4574 -0.3392
vn 0.5243 -0.8404 0.1374
vn -0.2222 -0.2908 -0.9306
vn 0.2222 0.2908 0.9306
usemtl Material.003
s off
f 2/1/1 3/2/1 1/3/1
f 4/4/2 7/5/2 3/2/2
f 7/5/3 6/6/3 5/7/3
f 6/6/4 1/8/4 5/7/4
f 3/9/5 5/7/5 1/10/5
f 4/11/6 6/6/6 8/12/6
f 2/1/1 4/4/1 3/2/1
f 4/4/2 8/12/2 7/5/2
f 7/5/3 8/12/3 6/6/3
f 6/6/4 2/13/4 1/8/4
f 3/9/5 7/5/5 5/7/5
f 4/11/6 2/14/6 6/6/6
